<mxfile host="65bd71144e">
    <diagram name="index" id="uye_SwWkvtYi2k1OO26d">
        <mxGraphModel dx="2060" dy="2298" grid="0" gridSize="10" guides="1" tooltips="1" connect="1" arrows="1" fold="1" page="0" pageScale="1" pageWidth="827" pageHeight="1169" math="0" shadow="0">
            <root>
                <mxCell id="0"/>
                <mxCell id="dYWCK5oMahjRUJsg4bfR-32" value="Background" style="locked=1;" parent="0"/>
                <mxCell id="dYWCK5oMahjRUJsg4bfR-33" value="" style="rounded=0;whiteSpace=wrap;html=1;" parent="dYWCK5oMahjRUJsg4bfR-32" vertex="1">
                    <mxGeometry x="-204" y="-247" width="567" height="331" as="geometry"/>
                </mxCell>
                <mxCell id="dYWCK5oMahjRUJsg4bfR-41" value="" style="rounded=0;whiteSpace=wrap;html=1;" parent="dYWCK5oMahjRUJsg4bfR-32" vertex="1">
                    <mxGeometry x="-98" y="270" width="374" height="337" as="geometry"/>
                </mxCell>
                <mxCell id="ypelOtXGm8tmmGL38GaL-45" value="" style="rounded=0;whiteSpace=wrap;html=1;" parent="dYWCK5oMahjRUJsg4bfR-32" vertex="1">
                    <mxGeometry x="-194" y="-844" width="567" height="331" as="geometry"/>
                </mxCell>
                <mxCell id="ypelOtXGm8tmmGL38GaL-77" value="" style="rounded=0;whiteSpace=wrap;html=1;" parent="dYWCK5oMahjRUJsg4bfR-32" vertex="1">
                    <mxGeometry x="674" y="-278" width="340" height="364" as="geometry"/>
                </mxCell>
                <mxCell id="1" value="Main" parent="0"/>
                <mxCell id="dYWCK5oMahjRUJsg4bfR-62" style="edgeStyle=orthogonalEdgeStyle;curved=1;rounded=0;orthogonalLoop=1;jettySize=auto;html=1;fontSize=12;startSize=8;endSize=8;fillColor=#fff2cc;strokeColor=#d6b656;dashed=1;" parent="1" source="dYWCK5oMahjRUJsg4bfR-24" edge="1" target="3">
                    <mxGeometry relative="1" as="geometry">
                        <mxPoint x="92" y="-179.66666666666652" as="targetPoint"/>
                    </mxGeometry>
                </mxCell>
                <mxCell id="dYWCK5oMahjRUJsg4bfR-24" value="Translated by Google" style="shape=note;whiteSpace=wrap;html=1;backgroundOutline=1;fontColor=#000000;darkOpacity=0.05;fillColor=#FFF9B2;strokeColor=none;fillStyle=solid;direction=west;gradientDirection=north;gradientColor=#FFF2A1;shadow=1;size=20;pointerEvents=1;" parent="1" vertex="1">
                    <mxGeometry x="127" y="-319" width="104" height="53" as="geometry"/>
                </mxCell>
                <mxCell id="dYWCK5oMahjRUJsg4bfR-25" value="English" style="rounded=1;fillColor=#F1F2F4;strokeColor=none;html=1;whiteSpace=wrap;fontColor=#596780;align=left;fontSize=12;spacingLeft=10;sketch=0;" parent="1" vertex="1">
                    <mxGeometry x="-121" y="-213" width="85" height="33" as="geometry"/>
                </mxCell>
                <mxCell id="dYWCK5oMahjRUJsg4bfR-26" value="" style="shape=triangle;direction=south;fillColor=#596780;strokeColor=none;html=1;sketch=0;" parent="dYWCK5oMahjRUJsg4bfR-25" vertex="1">
                    <mxGeometry x="1" y="0.5" width="12" height="6" relative="1" as="geometry">
                        <mxPoint x="-20" y="-3" as="offset"/>
                    </mxGeometry>
                </mxCell>
                <mxCell id="dYWCK5oMahjRUJsg4bfR-27" value="Czech" style="rounded=1;fillColor=#F1F2F4;strokeColor=none;html=1;whiteSpace=wrap;fontColor=#596780;align=left;fontSize=12;spacingLeft=10;sketch=0;" parent="1" vertex="1">
                    <mxGeometry x="125" y="-213" width="85" height="33" as="geometry"/>
                </mxCell>
                <mxCell id="dYWCK5oMahjRUJsg4bfR-28" value="" style="shape=triangle;direction=south;fillColor=#596780;strokeColor=none;html=1;sketch=0;" parent="dYWCK5oMahjRUJsg4bfR-27" vertex="1">
                    <mxGeometry x="1" y="0.5" width="12" height="6" relative="1" as="geometry">
                        <mxPoint x="-20" y="-3" as="offset"/>
                    </mxGeometry>
                </mxCell>
                <mxCell id="dYWCK5oMahjRUJsg4bfR-30" value="Hello" style="rounded=1;whiteSpace=wrap;html=1;" parent="1" vertex="1">
                    <mxGeometry x="-120" y="-160" width="180" height="60" as="geometry"/>
                </mxCell>
                <mxCell id="dYWCK5oMahjRUJsg4bfR-31" value="&lt;span style=&quot;&quot;&gt;Verb:&lt;/span&gt;&lt;div style=&quot;&quot;&gt;&amp;nbsp; &amp;nbsp; Semi-formal greeting&lt;/div&gt;" style="rounded=1;whiteSpace=wrap;html=1;labelBorderColor=none;strokeColor=#8F8F8F;align=left;verticalAlign=top;" parent="1" vertex="1">
                    <mxGeometry x="-120" y="-80" width="180" height="100" as="geometry"/>
                </mxCell>
                <mxCell id="dYWCK5oMahjRUJsg4bfR-42" value="Request translation" style="text;html=1;align=center;verticalAlign=middle;resizable=0;points=[];autosize=1;strokeColor=none;fillColor=none;fontSize=24;fontStyle=1" parent="1" vertex="1">
                    <mxGeometry x="-31.5" y="292" width="225" height="40" as="geometry"/>
                </mxCell>
                <mxCell id="dYWCK5oMahjRUJsg4bfR-43" value="Hello" style="text;html=1;align=center;verticalAlign=middle;resizable=0;points=[];autosize=1;strokeColor=none;fillColor=none;fontSize=16;" parent="1" vertex="1">
                    <mxGeometry x="-70" y="394" width="54" height="31" as="geometry"/>
                </mxCell>
                <mxCell id="dYWCK5oMahjRUJsg4bfR-63" value="English" style="rounded=1;whiteSpace=wrap;html=1;strokeColor=none;fillColor=#F1F2F4;" parent="1" vertex="1">
                    <mxGeometry x="-70" y="344" width="100" height="38" as="geometry"/>
                </mxCell>
                <mxCell id="dYWCK5oMahjRUJsg4bfR-66" value="" style="line;strokeWidth=2;direction=south;html=1;" parent="1" vertex="1">
                    <mxGeometry x="76" y="347" width="10" height="235" as="geometry"/>
                </mxCell>
                <mxCell id="dYWCK5oMahjRUJsg4bfR-67" value="Czech" style="rounded=1;whiteSpace=wrap;html=1;strokeColor=none;fillColor=#F1F2F4;" parent="1" vertex="1">
                    <mxGeometry x="129" y="344" width="100" height="38" as="geometry"/>
                </mxCell>
                <mxCell id="dYWCK5oMahjRUJsg4bfR-70" value="" style="group" parent="1" vertex="1" connectable="0">
                    <mxGeometry x="120" y="390" width="140" height="50" as="geometry"/>
                </mxCell>
                <mxCell id="dYWCK5oMahjRUJsg4bfR-68" value="Ahoj" style="rounded=1;whiteSpace=wrap;html=1;" parent="dYWCK5oMahjRUJsg4bfR-70" vertex="1">
                    <mxGeometry width="136" height="52" as="geometry"/>
                </mxCell>
                <mxCell id="ypelOtXGm8tmmGL38GaL-1" value="Ahoj&lt;div&gt;Čus&lt;/div&gt;" style="text;html=1;align=left;verticalAlign=middle;whiteSpace=wrap;rounded=0;" parent="1" vertex="1">
                    <mxGeometry x="122" y="466" width="60" height="30" as="geometry"/>
                </mxCell>
                <mxCell id="ypelOtXGm8tmmGL38GaL-4" style="edgeStyle=orthogonalEdgeStyle;curved=1;rounded=0;orthogonalLoop=1;jettySize=auto;html=1;entryX=1;entryY=0.75;entryDx=0;entryDy=0;fontSize=12;startSize=8;endSize=8;fillColor=#fff2cc;strokeColor=#d6b656;dashed=1;" parent="1" source="ypelOtXGm8tmmGL38GaL-3" target="ypelOtXGm8tmmGL38GaL-1" edge="1">
                    <mxGeometry relative="1" as="geometry"/>
                </mxCell>
                <mxCell id="ypelOtXGm8tmmGL38GaL-3" value="Click to fill in suggestion" style="shape=note;whiteSpace=wrap;html=1;backgroundOutline=1;fontColor=#000000;darkOpacity=0.05;fillColor=#FFF9B2;strokeColor=none;fillStyle=solid;direction=west;gradientDirection=north;gradientColor=#FFF2A1;shadow=1;size=20;pointerEvents=1;" parent="1" vertex="1">
                    <mxGeometry x="297" y="487" width="94" height="66" as="geometry"/>
                </mxCell>
                <mxCell id="ypelOtXGm8tmmGL38GaL-5" value="Submit" style="html=1;shadow=0;dashed=0;shape=mxgraph.bootstrap.rrect;rSize=5;strokeColor=none;strokeWidth=1;fillColor=#6C767D;fontColor=#FFFFFF;whiteSpace=wrap;align=center;verticalAlign=middle;spacingLeft=0;fontStyle=0;fontSize=16;spacing=5;fontFamily=Helvetica;" parent="1" vertex="1">
                    <mxGeometry x="173" y="552" width="85" height="33" as="geometry"/>
                </mxCell>
                <mxCell id="ypelOtXGm8tmmGL38GaL-7" value="Ahoj&lt;div&gt;Čau&lt;/div&gt;" style="rounded=1;whiteSpace=wrap;html=1;" parent="1" vertex="1">
                    <mxGeometry x="130" y="-160" width="180" height="60" as="geometry"/>
                </mxCell>
                <mxCell id="ypelOtXGm8tmmGL38GaL-8" value="" style="shape=image;html=1;verticalAlign=top;verticalLabelPosition=bottom;labelBackgroundColor=#ffffff;imageAspect=0;aspect=fixed;image=https://cdn3.iconfinder.com/data/icons/minimalisticons/28/burger-menu-1-128.png" parent="1" vertex="1">
                    <mxGeometry x="310" y="-213" width="39" height="39" as="geometry"/>
                </mxCell>
                <object label="" foo="ahoj :)" id="ypelOtXGm8tmmGL38GaL-14">
                    <mxCell style="swimlane;fontStyle=0;childLayout=stackLayout;horizontal=1;startSize=0;horizontalStack=0;resizeParent=1;resizeParentMax=0;resizeLast=0;collapsible=0;marginBottom=0;whiteSpace=wrap;html=1;strokeColor=none;fillColor=none;" parent="1" vertex="1">
                        <mxGeometry x="399" y="-259" width="204" height="90" as="geometry"/>
                    </mxCell>
                </object>
                <mxCell id="bE83b9OjTI7-sq1-CqPc-21" value="&lt;span style=&quot;color: rgb(63, 63, 63); font-size: 14px; caret-color: rgb(63, 63, 63);&quot;&gt;Taxonomy and translation list&lt;/span&gt;" style="text;strokeColor=#DFDFDF;fillColor=#FFFFFF;align=left;verticalAlign=middle;spacingLeft=10;spacingRight=10;overflow=hidden;portConstraint=eastwest;rotatable=0;whiteSpace=wrap;html=1;shape=mxgraph.bootstrap.topButton;rSize=5;fontColor=#333333;" vertex="1" parent="ypelOtXGm8tmmGL38GaL-14">
                    <mxGeometry width="204" height="30" as="geometry"/>
                </mxCell>
                <mxCell id="ypelOtXGm8tmmGL38GaL-15" value="&lt;span style=&quot;caret-color: rgb(63, 63, 63); color: rgb(63, 63, 63); font-size: 14px;&quot;&gt;Request translation approval&lt;/span&gt;" style="text;strokeColor=#DFDFDF;fillColor=#FFFFFF;align=left;verticalAlign=middle;spacingLeft=10;spacingRight=10;overflow=hidden;portConstraint=eastwest;rotatable=0;whiteSpace=wrap;html=1;shape=mxgraph.bootstrap.topButton;rSize=5;fontColor=#333333;" parent="ypelOtXGm8tmmGL38GaL-14" vertex="1">
                    <mxGeometry y="30" width="204" height="30" as="geometry"/>
                </mxCell>
                <mxCell id="13" value="&lt;span style=&quot;caret-color: rgb(63, 63, 63); color: rgb(63, 63, 63); font-size: 14px;&quot;&gt;Request taxonomy edit&lt;/span&gt;" style="text;strokeColor=#DFDFDF;fillColor=#FFFFFF;align=left;verticalAlign=middle;spacingLeft=10;spacingRight=10;overflow=hidden;points=[[0,0.5],[1,0.5]];portConstraint=eastwest;rotatable=0;whiteSpace=wrap;html=1;shape=mxgraph.bootstrap.bottomButton;rSize=5;fontColor=#333333;" vertex="1" parent="ypelOtXGm8tmmGL38GaL-14">
                    <mxGeometry y="60" width="204" height="30" as="geometry"/>
                </mxCell>
                <mxCell id="ypelOtXGm8tmmGL38GaL-18" style="edgeStyle=orthogonalEdgeStyle;curved=1;rounded=0;orthogonalLoop=1;jettySize=auto;html=1;entryX=1;entryY=0.25;entryDx=0;entryDy=0;fontSize=12;startSize=8;endSize=8;" parent="1" source="ypelOtXGm8tmmGL38GaL-17" target="ypelOtXGm8tmmGL38GaL-8" edge="1">
                    <mxGeometry relative="1" as="geometry">
                        <Array as="points">
                            <mxPoint x="380" y="-244"/>
                            <mxPoint x="380" y="-203"/>
                        </Array>
                    </mxGeometry>
                </mxCell>
                <mxCell id="ypelOtXGm8tmmGL38GaL-21" style="edgeStyle=orthogonalEdgeStyle;curved=1;rounded=0;orthogonalLoop=1;jettySize=auto;html=1;fontSize=12;startSize=8;endSize=8;dashed=1;fillColor=#fff2cc;strokeColor=#d6b656;" parent="1" source="ypelOtXGm8tmmGL38GaL-19" target="ypelOtXGm8tmmGL38GaL-17" edge="1">
                    <mxGeometry relative="1" as="geometry">
                        <mxPoint x="481" y="-260" as="targetPoint"/>
                        <Array as="points">
                            <mxPoint x="528" y="-296"/>
                            <mxPoint x="481" y="-296"/>
                        </Array>
                    </mxGeometry>
                </mxCell>
                <mxCell id="ypelOtXGm8tmmGL38GaL-19" value="After click display warning: Mind, that to prevent unnecessary maintanance overhead, only relevant sugestivně should be submited" style="shape=note;whiteSpace=wrap;html=1;backgroundOutline=1;fontColor=#000000;darkOpacity=0.05;fillColor=#FFF9B2;strokeColor=none;fillStyle=solid;direction=west;gradientDirection=north;gradientColor=#FFF2A1;shadow=1;size=20;pointerEvents=1;" parent="1" vertex="1">
                    <mxGeometry x="444" y="-407" width="160" height="96" as="geometry"/>
                </mxCell>
                <mxCell id="ypelOtXGm8tmmGL38GaL-44" style="edgeStyle=orthogonalEdgeStyle;curved=1;rounded=0;orthogonalLoop=1;jettySize=auto;html=1;fontSize=12;startSize=8;endSize=8;dashed=1;fillColor=#fff2cc;strokeColor=#d6b656;" parent="1" source="ypelOtXGm8tmmGL38GaL-43" target="2" edge="1">
                    <mxGeometry relative="1" as="geometry">
                        <Array as="points">
                            <mxPoint x="-279" y="-69"/>
                        </Array>
                        <mxPoint x="-166" y="-69.00000000000045" as="targetPoint"/>
                    </mxGeometry>
                </mxCell>
                <mxCell id="ypelOtXGm8tmmGL38GaL-43" value="Suggested by google" style="shape=note;whiteSpace=wrap;html=1;backgroundOutline=1;fontColor=#000000;darkOpacity=0.05;fillColor=#FFF9B2;strokeColor=none;fillStyle=solid;direction=west;gradientDirection=north;gradientColor=#FFF2A1;shadow=1;size=20;pointerEvents=1;" parent="1" vertex="1">
                    <mxGeometry x="-347" y="-185" width="135" height="52" as="geometry"/>
                </mxCell>
                <mxCell id="ypelOtXGm8tmmGL38GaL-47" value="English" style="rounded=1;fillColor=#F1F2F4;strokeColor=none;html=1;whiteSpace=wrap;fontColor=#596780;align=left;fontSize=12;spacingLeft=10;sketch=0;" parent="1" vertex="1">
                    <mxGeometry x="-111" y="-810" width="85" height="33" as="geometry"/>
                </mxCell>
                <mxCell id="ypelOtXGm8tmmGL38GaL-48" value="" style="shape=triangle;direction=south;fillColor=#596780;strokeColor=none;html=1;sketch=0;" parent="ypelOtXGm8tmmGL38GaL-47" vertex="1">
                    <mxGeometry x="1" y="0.5" width="12" height="6" relative="1" as="geometry">
                        <mxPoint x="-20" y="-3" as="offset"/>
                    </mxGeometry>
                </mxCell>
                <mxCell id="ypelOtXGm8tmmGL38GaL-49" value="" style="rounded=1;fillColor=#F1F2F4;strokeColor=none;html=1;whiteSpace=wrap;fontColor=#596780;align=left;fontSize=12;spacingLeft=10;sketch=0;" parent="1" vertex="1">
                    <mxGeometry x="135" y="-810" width="85" height="33" as="geometry"/>
                </mxCell>
                <mxCell id="ypelOtXGm8tmmGL38GaL-50" value="" style="shape=triangle;direction=south;fillColor=#596780;strokeColor=none;html=1;sketch=0;" parent="ypelOtXGm8tmmGL38GaL-49" vertex="1">
                    <mxGeometry x="1" y="0.5" width="12" height="6" relative="1" as="geometry">
                        <mxPoint x="-20" y="-3" as="offset"/>
                    </mxGeometry>
                </mxCell>
                <mxCell id="ypelOtXGm8tmmGL38GaL-51" value="Hello" style="rounded=1;whiteSpace=wrap;html=1;" parent="1" vertex="1">
                    <mxGeometry x="-110" y="-760" width="180" height="60" as="geometry"/>
                </mxCell>
                <mxCell id="ypelOtXGm8tmmGL38GaL-52" value="&lt;span style=&quot;&quot;&gt;Verb:&lt;/span&gt;&lt;div style=&quot;&quot;&gt;&amp;nbsp; &amp;nbsp; Semi-formal greating&lt;/div&gt;" style="rounded=1;whiteSpace=wrap;html=1;labelBorderColor=none;strokeColor=#8F8F8F;verticalAlign=top;align=left;labelPosition=center;verticalLabelPosition=middle;" parent="1" vertex="1">
                    <mxGeometry x="-110" y="-680" width="180" height="100" as="geometry"/>
                </mxCell>
                <mxCell id="ypelOtXGm8tmmGL38GaL-53" value="" style="rounded=1;whiteSpace=wrap;html=1;" parent="1" vertex="1">
                    <mxGeometry x="140" y="-760" width="180" height="60" as="geometry"/>
                </mxCell>
                <mxCell id="ypelOtXGm8tmmGL38GaL-54" value="" style="shape=image;html=1;verticalAlign=top;verticalLabelPosition=bottom;labelBackgroundColor=#ffffff;imageAspect=0;aspect=fixed;image=https://cdn3.iconfinder.com/data/icons/minimalisticons/28/burger-menu-1-128.png" parent="1" vertex="1">
                    <mxGeometry x="320" y="-810" width="39" height="39" as="geometry"/>
                </mxCell>
                <mxCell id="ypelOtXGm8tmmGL38GaL-59" style="edgeStyle=orthogonalEdgeStyle;curved=1;rounded=0;orthogonalLoop=1;jettySize=auto;html=1;entryX=0.75;entryY=0;entryDx=0;entryDy=0;fontSize=12;startSize=8;endSize=8;dashed=1;fillColor=#fff2cc;strokeColor=#d6b656;" parent="1" source="ypelOtXGm8tmmGL38GaL-58" target="ypelOtXGm8tmmGL38GaL-49" edge="1">
                    <mxGeometry relative="1" as="geometry"/>
                </mxCell>
                <mxCell id="ypelOtXGm8tmmGL38GaL-58" value="Only taxonomy, until language selected" style="shape=note;whiteSpace=wrap;html=1;backgroundOutline=1;fontColor=#000000;darkOpacity=0.05;fillColor=#FFF9B2;strokeColor=none;fillStyle=solid;direction=west;gradientDirection=north;gradientColor=#FFF2A1;shadow=1;size=20;pointerEvents=1;" parent="1" vertex="1">
                    <mxGeometry x="258" y="-916" width="106" height="60" as="geometry"/>
                </mxCell>
                <mxCell id="ypelOtXGm8tmmGL38GaL-65" style="edgeStyle=orthogonalEdgeStyle;curved=1;rounded=0;orthogonalLoop=1;jettySize=auto;html=1;entryX=1;entryY=0.5;entryDx=0;entryDy=0;fontSize=12;startSize=8;endSize=8;dashed=1;fillColor=#fff2cc;strokeColor=#d6b656;" parent="1" source="ypelOtXGm8tmmGL38GaL-64" target="ypelOtXGm8tmmGL38GaL-49" edge="1">
                    <mxGeometry relative="1" as="geometry"/>
                </mxCell>
                <mxCell id="ypelOtXGm8tmmGL38GaL-64" value="Languages with approved translation on top" style="shape=note;whiteSpace=wrap;html=1;backgroundOutline=1;fontColor=#000000;darkOpacity=0.05;fillColor=#FFF9B2;strokeColor=none;fillStyle=solid;direction=west;gradientDirection=north;gradientColor=#FFF2A1;shadow=1;size=20;pointerEvents=1;" parent="1" vertex="1">
                    <mxGeometry x="394" y="-858" width="143" height="67" as="geometry"/>
                </mxCell>
                <mxCell id="ypelOtXGm8tmmGL38GaL-67" style="edgeStyle=orthogonalEdgeStyle;curved=1;rounded=0;orthogonalLoop=1;jettySize=auto;html=1;fontSize=12;startSize=8;endSize=8;dashed=1;fillColor=#fff2cc;strokeColor=#d6b656;" parent="1" source="ypelOtXGm8tmmGL38GaL-66" target="dYWCK5oMahjRUJsg4bfR-31" edge="1">
                    <mxGeometry relative="1" as="geometry">
                        <Array as="points">
                            <mxPoint x="-315" y="-36"/>
                        </Array>
                    </mxGeometry>
                </mxCell>
                <mxCell id="ypelOtXGm8tmmGL38GaL-66" value="Once taxonomy is approved, it appears approved for other languages as well, even though they will be Translated using Google. Edit for different languages is allowed but not required" style="shape=note;whiteSpace=wrap;html=1;backgroundOutline=1;fontColor=#000000;darkOpacity=0.05;fillColor=#FFF9B2;strokeColor=none;fillStyle=solid;direction=west;gradientDirection=north;gradientColor=#FFF2A1;shadow=1;size=20;pointerEvents=1;" parent="1" vertex="1">
                    <mxGeometry x="-404" y="2" width="179" height="130" as="geometry"/>
                </mxCell>
                <mxCell id="ypelOtXGm8tmmGL38GaL-68" value="Implies language preference configuration" style="shape=note;whiteSpace=wrap;html=1;backgroundOutline=1;fontColor=#000000;darkOpacity=0.05;fillColor=#FFF9B2;strokeColor=none;fillStyle=solid;direction=west;gradientDirection=north;gradientColor=#FFF2A1;shadow=1;size=20;pointerEvents=1;" parent="1" vertex="1">
                    <mxGeometry x="-404" y="180" width="104" height="95" as="geometry"/>
                </mxCell>
                <mxCell id="ypelOtXGm8tmmGL38GaL-69" style="edgeStyle=orthogonalEdgeStyle;curved=1;rounded=0;orthogonalLoop=1;jettySize=auto;html=1;entryX=0;entryY=0;entryDx=79.5;entryDy=0;entryPerimeter=0;fontSize=12;startSize=8;endSize=8;dashed=1;fillColor=#fff2cc;strokeColor=#d6b656;" parent="1" source="ypelOtXGm8tmmGL38GaL-68" target="ypelOtXGm8tmmGL38GaL-66" edge="1">
                    <mxGeometry relative="1" as="geometry"/>
                </mxCell>
                <mxCell id="ypelOtXGm8tmmGL38GaL-78" value="Request taxonomy edit" style="text;html=1;align=center;verticalAlign=middle;resizable=0;points=[];autosize=1;strokeColor=none;fillColor=none;fontSize=24;fontStyle=1" parent="1" vertex="1">
                    <mxGeometry x="714" y="-257" width="263" height="40" as="geometry"/>
                </mxCell>
                <mxCell id="ypelOtXGm8tmmGL38GaL-79" value="Hello" style="text;html=1;align=center;verticalAlign=middle;resizable=0;points=[];autosize=1;strokeColor=none;fillColor=none;fontSize=16;" parent="1" vertex="1">
                    <mxGeometry x="698" y="-202.5" width="54" height="31" as="geometry"/>
                </mxCell>
                <mxCell id="ypelOtXGm8tmmGL38GaL-80" value="Friendly greeting" style="rounded=1;whiteSpace=wrap;html=1;strokeColor=#000000;align=left;verticalAlign=top;" parent="1" vertex="1">
                    <mxGeometry x="710" y="-130" width="155" height="60" as="geometry"/>
                </mxCell>
                <mxCell id="ypelOtXGm8tmmGL38GaL-81" value="Verb" style="rounded=1;whiteSpace=wrap;html=1;strokeColor=#000000;fontColor=#000000;arcSize=23;align=left;" parent="1" vertex="1">
                    <mxGeometry x="710" y="-170" width="80" height="30" as="geometry"/>
                </mxCell>
                <mxCell id="ypelOtXGm8tmmGL38GaL-82" value="Current taxonomy" style="text;html=1;align=center;verticalAlign=middle;whiteSpace=wrap;rounded=0;" parent="1" vertex="1">
                    <mxGeometry x="771" y="-24" width="115" height="30" as="geometry"/>
                </mxCell>
                <mxCell id="ypelOtXGm8tmmGL38GaL-83" value="Verb:&lt;div&gt;&amp;nbsp; &amp;nbsp; Semi-formal greeting&lt;/div&gt;" style="rounded=1;whiteSpace=wrap;html=1;align=left;strokeColor=#A1A1A1;horizontal=1;verticalAlign=top;" parent="1" vertex="1">
                    <mxGeometry x="690" width="160" height="70" as="geometry"/>
                </mxCell>
                <mxCell id="2" value="" style="dashed=0;outlineConnect=0;html=1;align=center;labelPosition=center;verticalLabelPosition=bottom;verticalAlign=top;shape=mxgraph.weblogos.translate" vertex="1" parent="1">
                    <mxGeometry x="-166" y="-85" width="38" height="35" as="geometry"/>
                </mxCell>
                <mxCell id="3" value="" style="dashed=0;outlineConnect=0;html=1;align=center;labelPosition=center;verticalLabelPosition=bottom;verticalAlign=top;shape=mxgraph.weblogos.translate" vertex="1" parent="1">
                    <mxGeometry x="73" y="-165" width="38" height="35" as="geometry"/>
                </mxCell>
                <mxCell id="4" value="" style="dashed=0;outlineConnect=0;html=1;align=center;labelPosition=center;verticalLabelPosition=bottom;verticalAlign=top;shape=mxgraph.weblogos.translate" vertex="1" parent="1">
                    <mxGeometry x="-162" y="-682" width="38" height="35" as="geometry"/>
                </mxCell>
                <mxCell id="5" value="" style="dashed=0;outlineConnect=0;html=1;align=center;labelPosition=center;verticalLabelPosition=bottom;verticalAlign=top;shape=mxgraph.weblogos.translate" vertex="1" parent="1">
                    <mxGeometry x="84" y="-759" width="38" height="35" as="geometry"/>
                </mxCell>
                <mxCell id="6" value="" style="line;strokeWidth=1;html=1;" vertex="1" parent="1">
                    <mxGeometry x="675" y="-28" width="338" height="10" as="geometry"/>
                </mxCell>
                <mxCell id="7" value="Submit" style="html=1;shadow=0;dashed=0;shape=mxgraph.bootstrap.rrect;rSize=5;strokeColor=none;strokeWidth=1;fillColor=#6C767D;fontColor=#FFFFFF;whiteSpace=wrap;align=center;verticalAlign=middle;spacingLeft=0;fontStyle=0;fontSize=16;spacing=5;fontFamily=Helvetica;" vertex="1" parent="1">
                    <mxGeometry x="910" y="-69" width="85" height="33" as="geometry"/>
                </mxCell>
                <mxCell id="10" value="" style="sketch=0;aspect=fixed;html=1;points=[];align=center;image;fontSize=12;image=img/lib/mscae/Info.svg;strokeColor=#A1A1A1;strokeWidth=1;" vertex="1" parent="1">
                    <mxGeometry x="795" y="-180" width="21" height="21" as="geometry"/>
                </mxCell>
                <mxCell id="12" style="edgeStyle=orthogonalEdgeStyle;html=1;curved=1;dashed=1;fillColor=#fff2cc;strokeColor=#d6b656;" edge="1" parent="1" source="11" target="10">
                    <mxGeometry relative="1" as="geometry">
                        <Array as="points">
                            <mxPoint x="931" y="-137"/>
                            <mxPoint x="931" y="-170"/>
                        </Array>
                    </mxGeometry>
                </mxCell>
                <mxCell id="11" value="A word may have multiple meanings and explanations. To tell them apart, give them a title (e.g. verb). If taxonomy with same title already exists, it gets replaced" style="shape=note;whiteSpace=wrap;html=1;backgroundOutline=1;fontColor=#000000;darkOpacity=0.05;fillColor=#FFF9B2;strokeColor=none;fillStyle=solid;direction=west;gradientDirection=north;gradientColor=#FFF2A1;shadow=1;size=20;pointerEvents=1;strokeWidth=1;" vertex="1" parent="1">
                    <mxGeometry x="1041" y="-189" width="177" height="104" as="geometry"/>
                </mxCell>
                <mxCell id="wGhWRoMXYo6_sKzBfMGC-14" style="edgeStyle=orthogonalEdgeStyle;curved=1;html=1;dashed=1;fillColor=#fff2cc;strokeColor=#d6b656;entryX=1;entryY=0.5;entryDx=0;entryDy=0;" edge="1" parent="1" source="wGhWRoMXYo6_sKzBfMGC-13" target="ypelOtXGm8tmmGL38GaL-17">
                    <mxGeometry relative="1" as="geometry">
                        <Array as="points">
                            <mxPoint x="646" y="-244"/>
                        </Array>
                    </mxGeometry>
                </mxCell>
                <mxCell id="bE83b9OjTI7-sq1-CqPc-19" value="" style="group" vertex="1" connectable="0" parent="1">
                    <mxGeometry x="627" y="-340" width="63.5" height="41" as="geometry"/>
                </mxCell>
                <mxCell id="wGhWRoMXYo6_sKzBfMGC-13" value="" style="shape=note;whiteSpace=wrap;html=1;backgroundOutline=1;fontColor=#000000;darkOpacity=0.05;fillColor=#FFF9B2;strokeColor=none;fillStyle=solid;direction=west;gradientDirection=north;gradientColor=#FFF2A1;shadow=1;size=20;pointerEvents=1;strokeWidth=1;" vertex="1" parent="bE83b9OjTI7-sq1-CqPc-19">
                    <mxGeometry width="63.5" height="41" as="geometry"/>
                </mxCell>
                <UserObject label="list" link="data:page/id,ZwGVjdSnyYZBrPZi71w_" id="wGhWRoMXYo6_sKzBfMGC-15">
                    <mxCell style="fontColor=#0000EE;fontStyle=4;rounded=1;overflow=hidden;spacing=10;strokeColor=none;strokeWidth=1;arcSize=37;fillColor=none;" vertex="1" parent="bE83b9OjTI7-sq1-CqPc-19">
                        <mxGeometry x="18" y="3" width="38" height="35" as="geometry"/>
                    </mxCell>
                </UserObject>
                <mxCell id="dYWCK5oMahjRUJsg4bfR-54" value="Guide" style="" parent="0"/>
                <mxCell id="ypelOtXGm8tmmGL38GaL-31" value="" style="group" parent="dYWCK5oMahjRUJsg4bfR-54" vertex="1" connectable="0">
                    <mxGeometry x="591" y="-227" width="33" height="39" as="geometry"/>
                </mxCell>
                <mxCell id="ypelOtXGm8tmmGL38GaL-32" value="" style="shape=image;html=1;verticalAlign=top;verticalLabelPosition=bottom;labelBackgroundColor=#ffffff;imageAspect=0;aspect=fixed;image=https://cdn2.iconfinder.com/data/icons/boxicons-regular-vol-3/24/bx-pointer-128.png" parent="ypelOtXGm8tmmGL38GaL-31" vertex="1">
                    <mxGeometry y="11" width="28" height="28" as="geometry"/>
                </mxCell>
                <mxCell id="ypelOtXGm8tmmGL38GaL-33" value="1" style="text;html=1;align=center;verticalAlign=middle;resizable=0;points=[];autosize=1;strokeColor=none;fillColor=none;fontSize=16;" parent="ypelOtXGm8tmmGL38GaL-31" vertex="1">
                    <mxGeometry x="6" width="27" height="31" as="geometry"/>
                </mxCell>
                <mxCell id="ypelOtXGm8tmmGL38GaL-34" value="" style="group" parent="dYWCK5oMahjRUJsg4bfR-54" vertex="1" connectable="0">
                    <mxGeometry x="591" y="-195" width="34" height="39" as="geometry"/>
                </mxCell>
                <mxCell id="ypelOtXGm8tmmGL38GaL-35" value="" style="shape=image;html=1;verticalAlign=top;verticalLabelPosition=bottom;labelBackgroundColor=#ffffff;imageAspect=0;aspect=fixed;image=https://cdn2.iconfinder.com/data/icons/boxicons-regular-vol-3/24/bx-pointer-128.png" parent="ypelOtXGm8tmmGL38GaL-34" vertex="1">
                    <mxGeometry y="11" width="28" height="28" as="geometry"/>
                </mxCell>
                <mxCell id="ypelOtXGm8tmmGL38GaL-36" value="2" style="text;html=1;align=center;verticalAlign=middle;resizable=0;points=[];autosize=1;strokeColor=none;fillColor=none;fontSize=16;" parent="ypelOtXGm8tmmGL38GaL-34" vertex="1">
                    <mxGeometry x="6" width="27" height="31" as="geometry"/>
                </mxCell>
                <mxCell id="ypelOtXGm8tmmGL38GaL-38" value="1" style="shape=flexArrow;endArrow=classic;html=1;rounded=0;fontSize=21;startSize=8;endSize=31.92;curved=1;endWidth=66.22222222222223;width=77.33333333333333;fontStyle=1;fontFamily=Helvetica;" parent="dYWCK5oMahjRUJsg4bfR-54" edge="1">
                    <mxGeometry width="50" height="50" relative="1" as="geometry">
                        <mxPoint x="104" y="108" as="sourcePoint"/>
                        <mxPoint x="104" y="244" as="targetPoint"/>
                    </mxGeometry>
                </mxCell>
                <mxCell id="ypelOtXGm8tmmGL38GaL-61" value="0" style="shape=flexArrow;endArrow=classic;html=1;rounded=0;fontSize=20;startSize=8;endSize=32.90526315789474;curved=1;endWidth=66.9252077562327;width=68.42105263157895;fontStyle=1" parent="dYWCK5oMahjRUJsg4bfR-54" edge="1">
                    <mxGeometry width="50" height="50" relative="1" as="geometry">
                        <mxPoint x="103" y="-467" as="sourcePoint"/>
                        <mxPoint x="107" y="-336" as="targetPoint"/>
                    </mxGeometry>
                </mxCell>
                <mxCell id="9" value="2" style="shape=flexArrow;endArrow=classic;html=1;rounded=0;fontSize=20;startSize=8;endSize=29.53846153846154;curved=1;width=76.92307692307692;endWidth=65;fontStyle=1" edge="1" parent="dYWCK5oMahjRUJsg4bfR-54">
                    <mxGeometry width="50" height="50" relative="1" as="geometry">
                        <mxPoint x="446" y="-65" as="sourcePoint"/>
                        <mxPoint x="566" y="-65" as="targetPoint"/>
                    </mxGeometry>
                </mxCell>
                <mxCell id="bE83b9OjTI7-sq1-CqPc-16" value="" style="group" vertex="1" connectable="0" parent="dYWCK5oMahjRUJsg4bfR-54">
                    <mxGeometry x="201" y="-796" width="34" height="39" as="geometry"/>
                </mxCell>
                <mxCell id="bE83b9OjTI7-sq1-CqPc-17" value="" style="shape=image;html=1;verticalAlign=top;verticalLabelPosition=bottom;labelBackgroundColor=#ffffff;imageAspect=0;aspect=fixed;image=https://cdn2.iconfinder.com/data/icons/boxicons-regular-vol-3/24/bx-pointer-128.png" vertex="1" parent="bE83b9OjTI7-sq1-CqPc-16">
                    <mxGeometry y="11" width="28" height="28" as="geometry"/>
                </mxCell>
                <mxCell id="bE83b9OjTI7-sq1-CqPc-18" value="0" style="text;html=1;align=center;verticalAlign=middle;resizable=0;points=[];autosize=1;strokeColor=none;fillColor=none;fontSize=16;" vertex="1" parent="bE83b9OjTI7-sq1-CqPc-16">
                    <mxGeometry x="6" width="27" height="31" as="geometry"/>
                </mxCell>
                <mxCell id="bE83b9OjTI7-sq1-CqPc-22" style="edgeStyle=orthogonalEdgeStyle;curved=1;html=1;entryX=0.5;entryY=0;entryDx=0;entryDy=0;dashed=1;" edge="1" parent="dYWCK5oMahjRUJsg4bfR-54" source="bE83b9OjTI7-sq1-CqPc-21" target="ypelOtXGm8tmmGL38GaL-8">
                    <mxGeometry relative="1" as="geometry"/>
                </mxCell>
                <mxCell id="bE83b9OjTI7-sq1-CqPc-23" style="edgeStyle=orthogonalEdgeStyle;curved=1;html=1;dashed=1;fillColor=#fff2cc;strokeColor=#d6b656;exitX=0;exitY=0;exitDx=43.5;exitDy=0;exitPerimeter=0;" edge="1" parent="dYWCK5oMahjRUJsg4bfR-54" source="wGhWRoMXYo6_sKzBfMGC-13" target="bE83b9OjTI7-sq1-CqPc-21">
                    <mxGeometry relative="1" as="geometry"/>
                </mxCell>
            </root>
        </mxGraphModel>
    </diagram>
    <diagram id="ZwGVjdSnyYZBrPZi71w_" name="list">
        <mxGraphModel dx="756" dy="659" grid="1" gridSize="10" guides="1" tooltips="1" connect="1" arrows="1" fold="1" page="1" pageScale="1" pageWidth="850" pageHeight="1100" math="0" shadow="0">
            <root>
                <mxCell id="0"/>
                <mxCell id="1" parent="0"/>
            </root>
        </mxGraphModel>
    </diagram>
    <diagram id="drjc4J-s4RwZEAihpra8" name="translation_approval">
        <mxGraphModel dx="756" dy="659" grid="1" gridSize="10" guides="1" tooltips="1" connect="1" arrows="1" fold="1" page="1" pageScale="1" pageWidth="850" pageHeight="1100" math="0" shadow="0">
            <root>
                <mxCell id="0"/>
                <mxCell id="1" parent="0"/>
            </root>
        </mxGraphModel>
    </diagram>
    <diagram id="MIM02sTmUOTelbRVhpPr" name="taxonomy_approval">
        <mxGraphModel dx="756" dy="659" grid="1" gridSize="10" guides="1" tooltips="1" connect="1" arrows="1" fold="1" page="1" pageScale="1" pageWidth="850" pageHeight="1100" math="0" shadow="0">
            <root>
                <mxCell id="0"/>
                <mxCell id="1" parent="0"/>
            </root>
        </mxGraphModel>
    </diagram>
    <diagram id="6YPxViMh8htTss04w87s" name="configuration">
        <mxGraphModel dx="756" dy="659" grid="1" gridSize="10" guides="1" tooltips="1" connect="1" arrows="1" fold="1" page="1" pageScale="1" pageWidth="850" pageHeight="1100" math="0" shadow="0">
            <root>
                <mxCell id="0"/>
                <mxCell id="1" parent="0"/>
            </root>
        </mxGraphModel>
    </diagram>
</mxfile>